<?xml version="1.0" encoding="UTF-8" standalone="no"?>
<svg width="100px" height="108px" viewBox="0 0 100 108" version="1.1" xmlns="http://www.w3.org/2000/svg" xmlns:xlink="http://www.w3.org/1999/xlink">
    <!-- Generator: Sketch 39.1 (31720) - http://www.bohemiancoding.com/sketch -->
    <title>Group Copy 2</title>
    <desc>Created with Sketch.</desc>
    <defs></defs>
    <g id="Page-1" stroke="none" stroke-width="1" fill="none" fill-rule="evenodd">
        <g id="Artboard" transform="translate(-91.000000, -56.000000)" fill="#6C5DE7">
            <g id="Group-Copy-2" transform="translate(91.000000, 56.000000)">
                <path d="M18.2340554,31.2837197 L43.224245,56.386642 C45.0695251,58.2405912 47.510426,59.1318664 49.9285586,59.0604676 C52.338237,59.131744 54.7708096,58.2436428 56.6099642,56.3961638 L81.6553999,31.2377462 L81.6553999,69.4982458 C81.6553999,74.5476055 85.7300592,78.6407073 90.7566677,78.6407073 C95.7826684,78.6407073 99.8573276,74.5476055 99.8573276,69.4982458 L99.8573276,9.21185837 C99.8573276,4.16249864 95.7826684,0.069396909 90.7566677,0.069396909 C87.9669007,0.069396909 85.4703578,1.33017388 83.8008778,3.31547266 L49.9676117,37.301873 L16.0495677,3.23031094 C14.3803383,1.27160415 11.9009086,0.0303161226 9.13278756,0.0303161226 C4.11160401,0.0303161226 0.0403161052,4.11458758 0.0315339922,9.1564322 C0.0313172372,9.19257342 0.0313124904,9.22871569 0.0315197517,9.26485695 L0.0315197576,98.5389339 C0.0315197576,103.588904 4.10617899,107.682006 9.13278756,107.682006 C14.1593961,107.682006 18.2340554,103.588904 18.2340554,98.5389339 L18.2340554,31.2837197 Z M24.2824018,67.326209 C24.2824018,71.6373082 27.7607249,75.1313748 32.0511837,75.1313748 C36.3422503,75.1313748 39.8205734,71.6373082 39.8205734,67.326209 C39.8205734,63.0157204 36.3422503,59.5216538 32.0511837,59.5216538 C27.7607249,59.5216538 24.2824018,63.0157204 24.2824018,67.326209 Z" id="Clip-14"></path>
            </g>
        </g>
    </g>
</svg>