<?xml version="1.0" encoding="UTF-8" standalone="no"?>
<svg width="153px" height="37px" viewBox="0 0 153 37" version="1.1" xmlns="http://www.w3.org/2000/svg" xmlns:xlink="http://www.w3.org/1999/xlink">
    <!-- Generator: Sketch 3.8.3 (29802) - http://www.bohemiancoding.com/sketch -->
    <title>Group 2</title>
    <desc>Created with Sketch.</desc>
    <defs></defs>
    <g id="视觉稿" stroke="none" stroke-width="1" fill="none" fill-rule="evenodd">
        <g id="footer1" transform="translate(-157.000000, -79.000000)">
            <g id="Group-2" transform="translate(157.000000, 79.000000)">
                <g id="Group-6">
                    <g id="Group-3" transform="translate(42.693297, 10.443548)">
                        <polygon id="Clip-8" points="0.00191896867 0.0474220145 110.243337 0.0474220145 110.243337 16.6907987 0.00191896867 16.6907987"></polygon>
                        <path d="M4.370005,10.208456 L6.8534576,3.18758204 L6.94120195,3.18758204 L9.40235886,10.208456 L4.370005,10.208456 Z M8.86941985,1.75463077 C8.55512249,0.915561449 7.76614262,0.361320562 6.88654154,0.361320562 C6.00622124,0.361320562 5.21724136,0.915561449 4.902944,1.75463077 L0.0870741348,14.610083 C-0.232257738,15.462366 0.38482953,16.377047 1.27881493,16.377047 C1.81535001,16.377047 2.29434782,16.0342251 2.47774789,15.5196253 L3.60116317,12.3615534 L10.1719199,12.3615534 L11.2953352,15.5196253 C11.478016,16.0342251 11.9577331,16.377047 12.4942681,16.377047 L12.4942681,16.377047 C13.3882535,16.377047 14.0046216,15.462366 13.6852897,14.610083 L8.86941985,1.75463077 Z" id="Mask" fill="#CCCCCC"></path>
                        <path d="M21.9714484,4.46622678 C21.2903509,4.46622678 20.6747021,4.60056596 20.1036446,4.89200123 C19.5541636,5.16141369 19.0485548,5.58792224 18.6091139,6.12601306 L18.6091139,6.05847643 C18.6091139,5.3522781 18.0481255,4.78041896 17.3562397,4.78041896 C16.6650732,4.78041896 16.1040848,5.3522781 16.1040848,6.05847643 L16.1040848,15.0981086 C16.1040848,15.8043069 16.6650732,16.3769001 17.3562397,16.3769001 C18.0481255,16.3769001 18.6091139,15.8043069 18.6091139,15.0981086 L18.6091139,9.40080591 C18.6968582,8.48098626 19.0046827,7.76377653 19.5318679,7.26973134 C19.9936046,6.82119998 20.5430855,6.59730134 21.1580152,6.59730134 C22.8726259,6.59730134 23.7299313,7.5391438 23.7299313,9.44558564 L23.7299313,15.0981086 C23.7299313,15.8043069 24.2902005,16.3769001 24.9820863,16.3769001 C25.673972,16.3769001 26.2349604,15.8043069 26.2349604,15.0981086 L26.2349604,9.221687 C26.2349604,6.03645361 24.8065976,4.46622678 21.9714484,4.46622678" id="Mask" fill="#CCCCCC"></path>
                        <path d="M34.3649773,6.88866321 C34.9353155,6.88866321 35.3977714,6.41664083 35.3977714,5.83450438 C35.3977714,5.25236792 34.9353155,4.78034555 34.3649773,4.78034555 L32.8704466,4.78034555 L32.8704466,2.94437673 C32.8704466,2.03410031 31.9649537,1.41525916 31.1407323,1.76248557 C30.6718035,1.95995683 30.3654175,2.42610645 30.3654175,2.94437673 L30.3654175,4.78034555 L29.3541999,4.78034555 C28.7838617,4.78034555 28.3214058,5.25236792 28.3214058,5.83450438 C28.3214058,6.41664083 28.7838617,6.88866321 29.3541999,6.88866321 L30.3654175,6.88866321 L30.3654175,13.4382489 C30.3654175,14.3808254 30.5854976,15.0760124 31.0249385,15.5693235 C31.4859559,16.1074143 32.2116448,16.3768267 33.2005667,16.3768267 L34.0794486,16.3768267 C34.6497868,16.3768267 35.1122426,15.9048044 35.1122426,15.3226679 C35.1122426,14.7405315 34.6497868,14.2685091 34.0794486,14.2685091 L33.6177119,14.2685091 C33.3544789,14.2685091 33.178271,14.2009724 33.0466545,14.0666333 C32.9143187,13.9095372 32.8704466,13.7076614 32.8704466,13.4382489 L32.8704466,6.88866321 L34.3649773,6.88866321 Z" id="Mask" fill="#CCCCCC"></path>
                        <path d="M52.8756534,0.361247153 L52.8756534,0.361247153 C52.1506838,0.361247153 51.4954781,0.800969393 51.2077917,1.48000624 L46.3631532,12.9223277 L46.2754088,12.9223277 L41.4099131,1.47780396 C41.1215075,0.799501205 40.467021,0.361247153 39.7427705,0.361247153 L39.7413321,0.361247153 C38.7380259,0.361247153 37.9245927,1.19150734 37.9245927,2.21556832 L37.9245927,15.0644137 C37.9245927,15.7896984 38.4999654,16.3769736 39.2098315,16.3769736 C39.9204169,16.3769736 40.4957896,15.7896984 40.4957896,15.0644137 L40.4957896,5.34060601 L40.583534,5.34060601 L44.7628977,15.3352943 C45.02685,15.9666151 45.6353067,16.3769736 46.3084928,16.3769736 C46.9816789,16.3769736 47.5894163,15.9666151 47.8540878,15.3352943 L52.0334516,5.34060601 L52.1211959,5.34060601 L52.1211959,15.0644137 C52.1211959,15.7889644 52.6965687,16.3769736 53.4064348,16.3769736 C54.1170201,16.3769736 54.6923929,15.7889644 54.6923929,15.0644137 L54.6923929,2.21556832 C54.6923929,1.19150734 53.8789597,0.361247153 52.8756534,0.361247153" id="Mask" fill="#CCCCCC"></path>
                        <path d="M65.6787039,13.3487628 C65.1076464,14.179023 64.2942132,14.6047975 63.2614191,14.6047975 C62.2063294,14.6047975 61.4151919,14.179023 60.8441344,13.3487628 C60.3608213,12.630819 60.1184455,11.7117335 60.1184455,10.590038 C60.1184455,9.46834255 60.3608213,8.52576599 60.8441344,7.80855626 C61.4151919,6.95627325 62.2063294,6.55252161 63.2614191,6.55252161 C64.2942132,6.55252161 65.1076464,6.95627325 65.6787039,7.80855626 C66.162017,8.52576599 66.4259692,9.46834255 66.4259692,10.590038 C66.4259692,11.6889766 66.162017,12.6087962 65.6787039,13.3487628 M63.2614191,4.46622678 C61.5252319,4.46622678 60.1407412,5.02707451 59.1079471,6.19281561 C58.0528574,7.33726798 57.5479678,8.79517845 57.5479678,10.590038 C57.5479678,12.3621407 58.0528574,13.819317 59.0856515,14.9410125 C60.1407412,16.1074877 61.5252319,16.6910923 63.2614191,16.6910923 C64.9753107,16.6910923 66.3820971,16.1074877 67.4371868,14.9410125 C68.4476852,13.819317 68.9748705,12.3621407 68.9748705,10.590038 C68.9748705,8.79517845 68.4476852,7.33726798 67.4148911,6.19281561 C66.3598014,5.02707451 64.9753107,4.46622678 63.2614191,4.46622678" id="Mask" fill="#CCCCCC"></path>
                        <path d="M76.665806,6.88866321 C77.2361443,6.88866321 77.6986001,6.41664083 77.6986001,5.83450438 C77.6986001,5.25236792 77.2361443,4.78034555 76.665806,4.78034555 L75.1712753,4.78034555 L75.1712753,2.94437673 C75.1712753,2.03410031 74.2657825,1.41525916 73.441561,1.76248557 C72.971913,1.95995683 72.6662463,2.42610645 72.6662463,2.94437673 L72.6662463,4.78034555 L71.6550287,4.78034555 C71.0846904,4.78034555 70.6222346,5.25236792 70.6222346,5.83450438 C70.6222346,6.41664083 71.0846904,6.88866321 71.6550287,6.88866321 L72.6662463,6.88866321 L72.6662463,13.4382489 C72.6662463,14.3808254 72.8856071,15.0760124 73.3257673,15.5693235 C73.7867847,16.1074143 74.5124735,16.3768267 75.5013954,16.3768267 L76.3802773,16.3768267 C76.9506155,16.3768267 77.4130714,15.9048044 77.4130714,15.3226679 C77.4130714,14.7405315 76.9506155,14.2685091 76.3802773,14.2685091 L75.9185407,14.2685091 C75.6553077,14.2685091 75.4790998,14.2009724 75.3474832,14.0666333 C75.2151475,13.9095372 75.1712753,13.7076614 75.1712753,13.4382489 L75.1712753,6.88866321 L76.665806,6.88866321 Z" id="Mask" fill="#CCCCCC"></path>
                        <path d="M81.6977284,4.78012532 C81.0058426,4.78012532 80.4448542,5.35271856 80.4448542,6.05891688 L80.4448542,15.098549 C80.4448542,15.8047474 81.0058426,16.3766065 81.6977284,16.3766065 C82.3896141,16.3766065 82.9506025,15.8047474 82.9506025,15.098549 L82.9506025,6.05891688 C82.9506025,5.35271856 82.3896141,4.78012532 81.6977284,4.78012532" id="Mask" fill="#CCCCCC"></path>
                        <path d="M81.6975845,0.0472751958 C81.2142714,0.0472751958 80.8187027,0.204371288 80.4893018,0.517829379 C80.1591817,0.832755658 80.0052694,1.2357732 80.0052694,1.72981839 C80.0052694,2.22312949 80.1591817,2.62688113 80.4893018,2.96309613 C80.8187027,3.27728831 81.2142714,3.43438441 81.6975845,3.43438441 C82.1808976,3.43438441 82.5764664,3.27728831 82.9065865,2.96309613 C83.2359874,2.64890394 83.4121953,2.22312949 83.4121953,1.72981839 C83.4121953,1.2357732 83.2359874,0.832755658 82.928163,0.517829379 C82.5987621,0.204371288 82.1808976,0.0472751958 81.6975845,0.0472751958" id="Mask" fill="#CCCCCC"></path>
                        <path d="M105.979681,4.46622678 C105.298583,4.46622678 104.682935,4.60056596 104.111877,4.89200123 C103.562396,5.16141369 103.056787,5.58792224 102.617346,6.12601306 L102.617346,6.05847643 C102.617346,5.3522781 102.056358,4.78041896 101.364472,4.78041896 C100.673306,4.78041896 100.112317,5.3522781 100.112317,6.05847643 L100.112317,15.0981086 C100.112317,15.8043069 100.673306,16.3769001 101.364472,16.3769001 C102.056358,16.3769001 102.617346,15.8043069 102.617346,15.0981086 L102.617346,9.40080591 C102.705091,8.48098626 103.012915,7.76377653 103.5401,7.26973134 C104.001837,6.82119998 104.551318,6.59730134 105.166248,6.59730134 C106.880858,6.59730134 107.738164,7.5391438 107.738164,9.44558564 L107.738164,15.0981086 C107.738164,15.8043069 108.298433,16.3769001 108.990319,16.3769001 C109.682204,16.3769001 110.243193,15.8043069 110.243193,15.0981086 L110.243193,9.221687 C110.243193,6.03645361 108.81483,4.46622678 105.979681,4.46622678" id="Mask" fill="#CCCCCC"></path>
                        <path d="M94.1794331,13.3487628 C93.6083757,14.179023 92.7949425,14.6047975 91.7621484,14.6047975 C90.7077779,14.6047975 89.9159211,14.179023 89.3448637,13.3487628 C88.8615506,12.630819 88.6191748,11.7117335 88.6191748,10.590038 C88.6191748,9.46834255 88.8615506,8.52576599 89.3448637,7.80855626 C89.9159211,6.95627325 90.7077779,6.55252161 91.7621484,6.55252161 C92.7949425,6.55252161 93.6083757,6.95627325 94.1794331,7.80855626 C94.6627463,8.52576599 94.9266985,9.46834255 94.9266985,10.590038 C94.9266985,11.6889766 94.6627463,12.6087962 94.1794331,13.3487628 M91.7621484,4.46622678 C90.0259612,4.46622678 88.6414705,5.02707451 87.6086764,6.19281561 C86.5535866,7.33726798 86.0486971,8.79517845 86.0486971,10.590038 C86.0486971,12.3621407 86.5535866,13.819317 87.5863807,14.9410125 C88.6414705,16.1074877 90.0259612,16.6910923 91.7621484,16.6910923 C93.47604,16.6910923 94.8828263,16.1074877 95.9379161,14.9410125 C96.9484145,13.819317 97.4755998,12.3621407 97.4755998,10.590038 C97.4755998,8.79517845 96.9484145,7.33726798 95.9156204,6.19281561 C94.8605306,5.02707451 93.47604,4.46622678 91.7621484,4.46622678" id="Mask" fill="#CCCCCC"></path>
                    </g>
                    <g id="Group-Copy-2" fill="#CCCCCC">
                        <path d="M5.5945009,1.10984254 L17.2474933,12.8158578 L28.871359,1.13910168 C29.444931,0.457009739 30.3026513,0.0238427951 31.2611126,0.0238427951 C32.9878616,0.0238427951 34.3877646,1.43011561 34.3877646,3.16493134 L34.3877646,23.8776116 C34.3877646,25.6124273 32.9878616,27.0187001 31.2611126,27.0187001 C29.5341548,27.0187001 28.1342518,25.6124273 28.1342518,23.8776116 L28.1342518,10.7323971 L19.5295613,19.3761106 C18.8976954,20.0108516 18.0619529,20.3159778 17.2340761,20.2914892 C16.4032946,20.3160198 15.5646909,20.0098031 14.9307205,19.3728391 L6.34501051,10.7481923 L6.34501051,33.8551623 C6.34501051,35.5901878 4.94510747,36.9964606 3.21814966,36.9964606 C1.49119184,36.9964606 0.0912887995,35.5901878 0.0912887995,33.8551623 L0.0912887995,3.18314049 C0.0912175901,3.17072327 0.0912192202,3.1583057 0.09129369,3.14588849 C0.094310901,1.41365473 1.49305568,0.0104157535 3.21814966,0.0104157535 C4.16917424,0.0104157535 5.02101507,0.436886856 5.5945009,1.10984254 Z M8.42299988,23.1313618 C8.42299988,24.6125323 9.61802378,25.8129938 11.0920676,25.8129938 C12.5663202,25.8129938 13.7613441,24.6125323 13.7613441,23.1313618 C13.7613441,21.6504011 12.5663202,20.4499396 11.0920676,20.4499396 C9.61802378,20.4499396 8.42299988,21.6504011 8.42299988,23.1313618 Z" id="Clip-14"></path>
                    </g>
                </g>
            </g>
        </g>
    </g>
</svg>