<?xml version="1.0" standalone="no"?>
<!DOCTYPE svg PUBLIC "-//W3C//DTD SVG 20010904//EN"
 "http://www.w3.org/TR/2001/REC-SVG-20010904/DTD/svg10.dtd">
<svg version="1.0" xmlns="http://www.w3.org/2000/svg"
 width="1800.000000pt" height="2104.000000pt" viewBox="0 0 1800.000000 2104.000000"
 preserveAspectRatio="xMidYMid meet">
<metadata>
Created by potrace 1.15, written by Peter Selinger 2001-2017
</metadata>
<g transform="translate(0.000000,2104.000000) scale(0.100000,-0.100000)"
fill="#000000" stroke="none">
<path d="M880 20525 c-95 -26 -162 -65 -231 -134 -70 -71 -109 -138 -134 -236
-13 -53 -15 -804 -15 -7026 0 -4800 3 -6999 11 -7069 62 -608 392 -1149 904
-1483 95 -61 6612 -3825 6700 -3869 166 -83 375 -150 580 -185 139 -23 471
-23 610 0 205 35 414 102 580 185 88 44 6605 3808 6700 3869 512 334 842 875
904 1483 8 70 11 2269 11 7069 0 6222 -2 6973 -15 7026 -25 98 -64 165 -134
236 -104 103 -239 156 -376 146 -49 -3 -1151 -293 -3770 -992 -2035 -543
-3752 -998 -3815 -1011 -160 -33 -358 -46 -527 -33 -76 5 -190 20 -253 33 -63
13 -1780 468 -3815 1011 -4003 1068 -3788 1015 -3915 980z m2686 -6904 c852
-492 1557 -901 1566 -910 22 -20 970 -1662 964 -1668 -6 -6 -2643 1515 -2765
1594 -227 147 -427 347 -574 574 -51 78 -757 1297 -757 1306 0 3 4 3 9 1 4 -1
705 -405 1557 -897z m12433 895 c-2 -2 -895 -518 -1984 -1146 -1089 -629
-2022 -1169 -2074 -1202 -553 -346 -1041 -832 -1391 -1382 -47 -74 -355 -602
-685 -1175 -330 -572 -602 -1041 -605 -1041 -3 0 -135 225 -293 500 l-288 500
607 1053 c333 578 639 1102 679 1162 41 61 108 149 149 198 48 55 72 89 64 92
-7 3 -377 102 -823 221 -445 119 -813 219 -816 223 -6 5 25 128 110 439 7 23
18 42 26 42 7 0 115 -27 240 -61 125 -33 228 -59 230 -57 1 2 31 109 65 238
34 129 63 236 65 238 1 1 109 -27 241 -62 131 -35 240 -64 241 -63 1 1 30 108
64 237 34 129 64 237 65 239 2 2 201 -48 441 -112 241 -64 470 -123 508 -131
419 -86 890 -77 1299 24 67 17 958 255 1981 529 1023 275 1866 500 1874 500 8
1 12 -1 10 -3z m-3105 -2128 c-654 -668 -738 -757 -946 -1006 -242 -289 -534
-698 -714 -1003 -38 -63 -555 -958 -1149 -1987 -594 -1029 -1082 -1872 -1085
-1872 -4 0 -3369 5823 -3413 5907 l-18 34 23 -12 c89 -47 1270 -733 1338 -777
214 -138 402 -322 547 -534 35 -50 444 -768 910 -1594 466 -827 851 -1500 854
-1496 4 4 342 588 752 1298 410 710 771 1331 802 1380 291 452 726 886 1179
1179 91 58 1015 595 1025 595 3 0 -44 -51 -105 -112z m-7723 -1099 c640 -369
1171 -679 1181 -688 20 -19 969 -1663 964 -1669 -8 -7 -1955 1122 -2040 1183
-192 137 -349 293 -479 478 -48 68 -797 1350 -797 1364 0 2 2 3 4 3 2 0 528
-302 1167 -671z m1611 -2335 c425 -245 779 -452 786 -459 16 -14 972 -1669
967 -1673 -6 -7 -1181 678 -1264 736 -185 132 -341 288 -473 474 -48 67 -798
1350 -798 1365 0 2 2 3 4 3 3 0 352 -201 778 -446z"/>
</g>
</svg>
